<svg xmlns="http://www.w3.org/2000/svg" width="16" height="16" fill="none"><rect width="16" height="16" fill="#9747FF" rx="8"/><path fill="#fff" fill-rule="evenodd" d="M8.674 4.709a.636.636 0 1 0 0-1.272.636.636 0 0 0 0 1.272Zm0 .954a1.59 1.59 0 1 0 0-3.18 1.59 1.59 0 0 0 0 3.18Zm.802 1.494-3.536.988.512.765 2.785-.997.322.898-1.148.411.558.635.788-.34.378.876-1.424.614-1.267-1.439-1.371.49-1.66-2.477L9.42 6.183a.629.629 0 0 1 .64.189 6.087 6.087 0 0 1 .918 6.68l-.245.505-2.363-.763.293-.908 1.566.506a5.133 5.133 0 0 0-.752-5.235Z" clip-rule="evenodd"/></svg>